<svg width="32" height="32" viewBox="0 0 32 32" fill="none" xmlns="http://www.w3.org/2000/svg">
<g clip-path="url(#clip0_27_13)">
<path d="M14.9642 1.10822C15.5246 0.508661 16.4754 0.508661 17.0358 1.10822L20.1523 4.44282C20.4318 4.74186 20.8269 4.90551 21.236 4.89169L25.7977 4.73753C26.6179 4.70981 27.2902 5.38213 27.2625 6.20232L27.1083 10.764C27.0945 11.1731 27.2581 11.5682 27.5572 11.8477L30.8918 14.9642C31.4913 15.5246 31.4913 16.4754 30.8918 17.0358L27.5572 20.1523C27.2581 20.4318 27.0945 20.8269 27.1083 21.236L27.2625 25.7977C27.2902 26.6179 26.6179 27.2902 25.7977 27.2625L21.236 27.1083C20.8269 27.0945 20.4318 27.2581 20.1523 27.5572L17.0358 30.8918C16.4754 31.4913 15.5246 31.4913 14.9642 30.8918L11.8477 27.5572C11.5682 27.2581 11.1731 27.0945 10.764 27.1083L6.20232 27.2625C5.38213 27.2902 4.70981 26.6179 4.73753 25.7977L4.89169 21.236C4.90551 20.8269 4.74186 20.4318 4.44282 20.1523L1.10822 17.0358C0.508661 16.4754 0.508661 15.5246 1.10822 14.9642L4.44282 11.8477C4.74186 11.5682 4.90551 11.1731 4.89169 10.764L4.73753 6.20232C4.70981 5.38213 5.38213 4.70981 6.20232 4.73753L10.764 4.89169C11.1731 4.90551 11.5682 4.74186 11.8477 4.44282L14.9642 1.10822Z" fill="#F4F4F4"/>
<path fill-rule="evenodd" clip-rule="evenodd" d="M13.5203 22.2527C13.6785 22.4109 13.935 22.4109 14.0932 22.2527L23.6494 12.6964C23.8076 12.5383 23.8076 12.2818 23.6494 12.1236L21.6444 10.1186C21.4862 9.96045 21.2298 9.96045 21.0716 10.1186L14.0932 17.0971C13.935 17.2552 13.6785 17.2552 13.5203 17.0971L11.6964 15.2732C11.5383 15.115 11.2818 15.115 11.1236 15.2732L9.11864 17.2782C8.96045 17.4363 8.96045 17.6928 9.11864 17.851L11.2289 19.9613L13.4947 22.227L13.5203 22.2527Z" fill="#00ACE2"/>
</g>
<defs>
<clipPath id="clip0_27_13">
<rect width="32" height="32" fill="white"/>
</clipPath>
</defs>
</svg>
