<svg width="32" height="32" viewBox="0 0 32 32" fill="none" xmlns="http://www.w3.org/2000/svg">
<g clip-path="url(#clip0_27_13)">
<path d="M20.6712 1.82193C21.4167 1.47872 22.2969 1.83819 22.589 2.6051L24.2136 6.87048C24.3593 7.25298 24.6631 7.55386 25.0471 7.69572L29.3285 9.27761C30.0983 9.56204 30.4665 10.4386 30.1308 11.1875L28.2634 15.3523C28.096 15.7258 28.0981 16.1534 28.2693 16.5252L30.1781 20.6712C30.5213 21.4166 30.1619 22.2969 29.3949 22.589L25.1296 24.2135C24.7471 24.3592 24.4462 24.6631 24.3043 25.0471L22.7224 29.3284C22.438 30.0982 21.5614 30.4665 20.8126 30.1307L16.6477 28.2634C16.2743 28.0959 15.8466 28.0981 15.4748 28.2693L11.3289 30.1781C10.5834 30.5213 9.70317 30.1618 9.41107 29.3949L7.78651 25.1295C7.64082 24.747 7.33693 24.4461 6.95298 24.3043L2.6716 22.7224C1.9018 22.438 1.53356 21.5614 1.86931 20.8125L3.73665 16.6477C3.9041 16.2742 3.90197 15.8466 3.73079 15.4748L1.82196 11.3288C1.47875 10.5834 1.83822 9.70314 2.60514 9.41104L6.87051 7.78647C7.25302 7.64079 7.55389 7.33689 7.69575 6.95295L9.27765 2.67157C9.56207 1.90177 10.4387 1.53353 11.1875 1.86928L15.3523 3.73661C15.7258 3.90407 16.1535 3.90193 16.5253 3.73075L20.6712 1.82193Z" fill="#40A7E3"/>
<path fill-rule="evenodd" clip-rule="evenodd" d="M13.5203 22.2527C13.6785 22.4109 13.935 22.4109 14.0932 22.2527L23.6494 12.6964C23.8076 12.5383 23.8076 12.2818 23.6494 12.1236L21.6444 10.1186C21.4862 9.96045 21.2298 9.96045 21.0716 10.1186L14.0932 17.0971C13.935 17.2552 13.6785 17.2552 13.5203 17.0971L11.6964 15.2732C11.5383 15.115 11.2818 15.115 11.1236 15.2732L9.11864 17.2782C8.96045 17.4363 8.96045 17.6928 9.11864 17.851L11.2289 19.9613L13.4947 22.227L13.5203 22.2527Z" fill="white"/>
</g>
<defs>
<clipPath id="clip0_27_13">
<rect width="32" height="32" fill="white"/>
</clipPath>
</defs>
</svg>
