<svg width="2075" height="2075" viewBox="0 0 2075 2075" fill="none" xmlns="http://www.w3.org/2000/svg">
<path d="M130 1137.44V1575.43C130 1647.08 189.342 1704.6 263.259 1704.6C337.177 1704.6 396.519 1647.08 396.519 1575.43V1467.44H304.903V1575.43C304.903 1598.64 287.205 1617.81 263.259 1617.81C239.314 1617.81 221.616 1598.64 221.616 1575.43V1137.44C221.616 1114.23 239.314 1095.05 263.259 1095.05C287.205 1095.05 304.903 1114.23 304.903 1137.44V1245.42H396.519V1137.44C396.519 1065.79 337.177 1008.26 263.259 1008.26C189.342 1008.26 130 1065.79 130 1137.44Z" fill="white"/>
<path d="M576.4 1331.2C650.317 1331.2 709.66 1283.77 709.66 1212.12V1127.35C709.66 1055.69 650.317 1008.26 576.4 1008.26C502.483 1008.26 443.141 1055.69 443.141 1127.35V1212.12C443.141 1283.77 502.483 1331.2 576.4 1331.2ZM443.141 1699.55H709.66V1623.87H618.044V1462.4H709.66V1386.71H443.141V1462.4H534.756V1623.87H443.141V1699.55ZM526.428 1214.14V1125.33C526.428 1098.08 547.25 1084.96 576.4 1084.96C605.551 1084.96 626.373 1098.08 626.373 1125.33V1214.14C626.373 1241.38 605.551 1254.5 576.4 1254.5C547.25 1254.5 526.428 1241.38 526.428 1214.14Z" fill="white"/>
<path d="M960.335 1435.15L963.458 1450.29H953.047L847.897 1013.31H756.281V1699.55H847.897V1486.62L818.747 1277.71L815.623 1262.58H824.993L931.184 1699.55H1022.8V1013.31H931.184V1226.25L960.335 1435.15Z" fill="white"/>
<path d="M1161.04 1326.16H1244.32V1089H1335.94V1013.31H1069.42V1089H1161.04V1326.16ZM1069.42 1699.55H1152.71V1644.05H1252.65V1699.55H1335.94V1500.74C1335.94 1429.09 1276.6 1381.66 1202.68 1381.66C1128.76 1381.66 1069.42 1429.09 1069.42 1500.74V1699.55ZM1152.71 1568.36V1498.73C1152.71 1471.48 1173.53 1458.36 1202.68 1458.36C1231.83 1458.36 1252.65 1471.48 1252.65 1498.73V1568.36H1152.71Z" fill="white"/>
<path d="M1382.56 1699.55H1476.26V1457.35H1515.82C1589.74 1457.35 1649.08 1399.83 1649.08 1328.17V1142.48C1649.08 1070.83 1589.74 1013.31 1515.82 1013.31H1382.56V1699.55ZM1474.18 1370.56V1100.1H1515.82C1539.77 1100.1 1557.47 1119.27 1557.47 1142.48V1328.17C1557.47 1351.39 1539.77 1370.56 1515.82 1370.56H1474.18Z" fill="white"/>
<path d="M1695.7 1613.77V1699.55H1945.56V1613.77H1787.32L1945.56 1099.09V1013.31H1695.7V1099.09H1853.95L1695.7 1613.77Z" fill="white"/>
<path fill-rule="evenodd" clip-rule="evenodd" d="M1662.15 905.263C1676.56 905.263 1690.92 903.472 1704.89 899.931L1800.44 875.718C1834.17 867.062 1860.24 840.299 1867.67 806.35C1875.4 772.23 1863.19 736.885 1836.23 714.814L1807.62 691.401L1599.22 520.389L1335.24 303.901C1290.13 266.623 1229.94 253.195 1173.06 267.758L597.624 412.755L424.568 456.383L273.994 494.314C267.219 497.008 261.06 500.021 255.095 503.632C252.096 504.929 249.429 506.119 246.534 507.747C229.258 516.396 212.987 528.063 198.59 542.581C185.241 556.025 174.352 571.29 166.107 587.353C148.241 622.165 142.382 661.086 148.127 698.508C150.953 717.474 156.706 735.828 165.565 753.218C174.137 770.518 185.839 786.811 200.417 800.966L201.947 802.531L312.88 894.13C321.596 901.327 332.546 905.263 343.849 905.263H431.254C447.326 905.263 454.574 885.144 442.193 874.895V874.895L289.78 748.572L268.014 730.451C261.583 723.813 256.438 716.837 252.696 709.187C246.567 697.088 243.545 683.918 243.645 670.625C243.633 657.217 246.828 643.956 252.996 631.94C256.767 624.592 261.954 617.521 268.016 611.123C274.878 604.357 282.478 598.973 290.526 594.873C302.447 588.646 315.792 585.709 329.06 585.846C342.308 585.695 355.499 588.907 367.552 595.092C368.564 595.612 369.554 596.176 370.543 596.74V596.74C372.513 597.862 374.414 599.11 376.167 600.548L531.109 727.636L699.391 865.76C730.51 891.302 769.524 905.263 809.784 905.263H1662.15Z" fill="white"/>
</svg>
